<?xml version="1.0" encoding="utf-8"?>
<svg version="1.1" xmlns="http://www.w3.org/2000/svg" width="108" height="108" viewBox="0 0 1080 1080">
    <path fill="#005678" d="M328 633v36q0 6 -6 6h-36q-6 0 -6 -6v-36q0 -6 6 -6h36q6 0 6 6zM377 534v36q0 6 -6 6h-86q-6 0 -6 -6v-36q0 -6 6 -6h86q6 0 6 6zM328 436v36q0 6 -6 6h-36q-6 0 -6 -6v-36q0 -6 6 -6h36q6 0 6 6zM722 633v36q0 6 -6 6h-332q-6 0 -6 -6v-36q0 -6 6 -6h332q6 0 6 6zM475 534v36q0 6 -6 6h-36q-6 0 -6 -6v-36q0 -6 6 -6h36q6 0 6 6zM426 436v36q0 6 -6 6h-36q-6 0 -6 -6v-36q0 -6 6 -6h36q6 0 6 6zM574 534v36q0 6 -6 6h-36q-6 0 -6 -6v-36q0 -6 6 -6h36q6 0 6 6zM525 436v36q0 6 -6 6h-36q-6 0 -6 -6v-36q0 -6 6 -6h36q6 0 6 6zM672 534v36q0 6 -6 6h-36q-6 0 -6 -6v-36q0 -6 6 -6h36q6 0 6 6zM820 633v36q0 6 -6 6h-36q-6 0 -6 -6v-36q0 -6 6 -6h36q6 0 6 6zM623 436v36q0 6 -6 6h-36q-6 0 -6 -6v-36q0 -6 6 -6h36q6 0 6 6zM722 436v36q0 6 -6 6h-36q-6 0 -6 -6v-36q0 -6 6 -6h36q6 0 6 6zM820 436v135q0 6 -6 6h-86q-6 0 -6 -6v-36q0 -6 6 -6h43v-92q0 -6 6 -6h36q6 0 6 6zM870 725v-344h-640v344h640zM919 380v344q0 20 -14 34t-34 14h-640q-20 0 -34 -14t-14 -34v-344q0 -20 14 -34t34 -14h640q20 0 34 14t14 34z"/>
</svg>